<svg xmlns="http://www.w3.org/2000/svg" width="1024" height="1024" viewBox="0 0 1024 1024">
  <defs>
    <linearGradient id="bg" x1="0" y1="0" x2="0.35" y2="1">
      <stop offset="0" stop-color="#241246"/>
      <stop offset="0.55" stop-color="#1A0E31"/>
      <stop offset="1" stop-color="#120A22"/>
    </linearGradient>
    <radialGradient id="halo" cx="0.5" cy="0.5" r="0.5">
      <stop offset="0" stop-color="#FFB347" stop-opacity="0.5"/>
      <stop offset="0.55" stop-color="#FF7A2F" stop-opacity="0.13"/>
      <stop offset="1" stop-color="#FF7A2F" stop-opacity="0"/>
    </radialGradient>
    <linearGradient id="scale" x1="0.1" y1="0" x2="0.9" y2="1">
      <stop offset="0" stop-color="#FFD98A"/>
      <stop offset="0.34" stop-color="#F5A63C"/>
      <stop offset="0.68" stop-color="#DE6127"/>
      <stop offset="1" stop-color="#9E3320"/>
    </linearGradient>
    <linearGradient id="finGrad" x1="0" y1="0" x2="1" y2="1">
      <stop offset="0" stop-color="#FFC46B"/>
      <stop offset="1" stop-color="#C2451F"/>
    </linearGradient>
    <!-- The head sits at the tail end of the body gradient, where it is darkest. Its own
         ramp keeps it the second-brightest element after the core, so it reads. -->
    <linearGradient id="headGrad" x1="0" y1="1" x2="1" y2="0">
      <stop offset="0" stop-color="#E8873A"/>
      <stop offset="1" stop-color="#FFDC96"/>
    </linearGradient>
    <radialGradient id="core" cx="0.5" cy="0.42" r="0.62">
      <stop offset="0" stop-color="#FFFFFF"/>
      <stop offset="0.42" stop-color="#FFE7AE"/>
      <stop offset="1" stop-color="#FFA53D"/>
    </radialGradient>
  </defs>

  <rect width="1024" height="1024" fill="url(#bg)"/>
  <circle cx="512" cy="512" r="347" fill="url(#halo)"/>

  <g fill="url(#finGrad)">
    <path d="M161.4 526.7 L135.1 515.4 L161.4 501 Z"/>
    <path d="M167.4 425.2 L144.4 405.9 L175.1 399.3 Z"/>
    <path d="M202.7 328.5 L185.3 302.2 L218.1 304.8 Z"/>
    <path d="M264.9 245 L255.4 213.5 L287.5 225.9 Z"/>
    <path d="M349.4 182.2 L349.3 147.8 L377.7 169.8 Z"/>
    <path d="M449.4 145.8 L459.5 111.5 L481.3 141.9 Z"/>
    <path d="M556.6 139.6 L577 108.4 L589.6 145.2 Z"/>
    <path d="M662.2 164.6 L691.7 139.6 L693.3 179.9 Z"/>
    <path d="M756.9 219.2 L793.7 203.2 L783.3 243.8 Z"/>
    <path d="M832.6 299.4 L873.9 294.4 L851.5 331.6 Z"/>
    <path d="M882.6 398.7 L924.9 405.9 L891.7 436.1 Z"/>
  </g>

  <path d="M400.2 819.3 L393.2 817.8 L386.4 815.8 L379.6 813.6 L373 811.2 L366.3 808.7 L359.7 805.9 L353.2 803 L346.8 800 L340.4 796.8 L334 793.4 L327.8 789.9 L321.6 786.3 L315.5 782.5 L309.5 778.5 L303.5 774.4 L297.7 770.2 L291.9 765.9 L286.2 761.4 L280.7 756.8 L275.2 752 L269.8 747.2 L264.5 742.2 L259.3 737.1 L254.2 731.8 L249.3 726.5 L244.4 721 L239.7 715.5 L235.1 709.8 L230.6 704 L226.2 698.1 L222 692.2 L217.8 686.1 L213.9 679.9 L210 673.6 L206.3 667.3 L202.7 660.8 L199.2 654.3 L195.9 647.7 L192.7 641 L189.7 634.2 L186.8 627.4 L184.1 620.5 L181.5 613.5 L179.1 606.5 L176.8 599.4 L174.6 592.3 L172.6 585.1 L170.8 577.8 L169.1 570.6 L167.6 563.2 L166.3 555.9 L165.1 548.5 L164 541 L163.1 533.6 L162.4 526.1 L161.9 518.6 L161.5 511.1 L161.2 503.5 L161.2 496 L161.2 488.4 L161.5 480.9 L161.9 473.3 L162.5 465.8 L163.3 458.2 L164.2 450.7 L165.2 443.1 L166.5 435.6 L167.9 428.2 L169.5 420.7 L171.2 413.3 L173.1 405.9 L175.1 398.5 L177.4 391.2 L179.7 383.9 L182.3 376.7 L184.9 369.5 L187.8 362.4 L190.8 355.3 L194 348.3 L197.3 341.4 L200.7 334.5 L204.4 327.7 L208.1 321 L212 314.3 L216.1 307.8 L220.3 301.3 L224.7 294.9 L229.1 288.5 L233.8 282.3 L238.5 276.2 L243.4 270.2 L248.5 264.3 L253.6 258.5 L258.9 252.7 L264.4 247.1 L269.9 241.7 L275.6 236.3 L281.4 231.1 L287.3 225.9 L293.3 220.9 L299.4 216.1 L305.7 211.3 L312 206.7 L318.4 202.2 L325 197.9 L331.6 193.7 L338.4 189.7 L345.2 185.7 L352.1 182 L359.1 178.4 L366.2 174.9 L373.4 171.6 L380.6 168.4 L388 165.4 L395.3 162.6 L402.8 159.9 L410.3 157.3 L417.9 155 L425.5 152.8 L433.2 150.7 L440.9 148.8 L448.7 147.1 L456.5 145.6 L464.3 144.2 L472.2 143 L480.1 141.9 L488.1 141.1 L496 140.4 L504 139.9 L512 139.5 L520 139.3 L528 139.3 L536 139.5 L544.1 139.8 L552.1 140.3 L560.1 141 L568.1 141.9 L576.1 142.9 L584 144.1 L592 145.5 L599.9 147.1 L607.8 148.8 L615.6 150.7 L623.4 152.8 L631.2 155 L638.9 157.4 L646.6 160 L654.2 162.7 L661.8 165.7 L669.3 168.7 L676.7 172 L684.1 175.4 L691.4 178.9 L698.6 182.7 L705.8 186.5 L712.9 190.6 L719.8 194.8 L726.7 199.1 L733.5 203.6 L740.3 208.2 L746.9 213 L753.4 218 L759.8 223 L766.1 228.3 L772.3 233.6 L778.4 239.1 L784.3 244.7 L790.2 250.5 L795.9 256.4 L801.5 262.4 L806.9 268.5 L812.3 274.8 L817.5 281.2 L822.5 287.6 L827.5 294.2 L832.3 301 L836.9 307.8 L841.4 314.7 L845.7 321.7 L849.9 328.8 L854 336 L857.9 343.3 L861.6 350.7 L865.2 358.2 L868.6 365.7 L871.8 373.3 L874.9 381 L877.8 388.8 L880.6 396.6 L883.2 404.5 L885.6 412.4 L887.8 420.4 L889.9 428.5 L891.8 436.6 L893.5 444.7 L895.1 452.9 L896.4 461.1 L897.6 469.4 L898.7 477.6 L899.5 485.9 L900.1 494.3 L900.6 502.6 L900.9 511 L901 519.3 L901 527.7 L900.7 536 L900.3 544.4 L899.7 552.7 L898.9 561.1 L897.9 569.4 L896.8 577.7 L895.5 586 L894 594.3 L892.3 602.5 L890.4 610.7 L888.4 618.8 L886.2 626.9 L883.8 635 L881.2 643 L878.5 651 L875.5 658.9 L872.5 666.7 L869.2 674.5 L865.8 682.2 L862.2 689.8 L858.4 697.4 L854.5 704.9 L850.4 712.3 L846.2 719.6 L841.8 726.8 L837.2 733.9 L832.5 740.9 L827.6 747.9 L822.6 754.7 L815.6 759.9 L808.5 764.9 L801.3 769.7 L794.1 774.3 L786.8 778.8 L779.4 783 L771.9 787 L764.4 790.8 L756.9 794.5 L749.3 797.9 L741.7 801.1 L734 804.2 L726.3 807 L718.6 809.6 L710.9 812 L703.1 814.3 L695.4 816.3 L687.7 818.1 L679.9 819.8 L672.2 821.2 L664.5 822.5 L656.9 823.9 L650.2 827 L643.5 830 L636.6 832.8 L629.7 835.5 L622.7 816.2 L629.2 813.7 L635.7 811.1 L642 808.3 L648.3 805.4 L653.7 800.5 L658.7 795.2 L663.5 789.8 L668.2 784.3 L672.8 778.7 L677.1 773.1 L681.3 767.5 L685.4 761.8 L689.3 756 L693 750.2 L696.5 744.3 L699.9 738.4 L703.1 732.5 L706.2 726.5 L709.1 720.5 L711.8 714.5 L714.4 708.5 L716.8 702.5 L719.1 696.5 L721.2 690.4 L723.1 684.4 L724.9 678.4 L728.5 673.8 L731.9 669.1 L735.2 664.3 L738.5 659.5 L741.6 654.6 L744.7 649.7 L747.6 644.7 L750.4 639.6 L753.1 634.4 L755.7 629.2 L758.2 624 L760.6 618.7 L762.8 613.3 L765 607.9 L767 602.5 L768.9 597 L770.7 591.5 L772.4 585.9 L773.9 580.3 L775.4 574.7 L776.7 569 L777.9 563.3 L779 557.6 L779.9 551.9 L780.8 546.1 L781.5 540.3 L782.1 534.5 L782.5 528.7 L782.9 522.9 L783.1 517.1 L783.2 511.3 L783.2 505.4 L783 499.6 L782.7 493.8 L782.3 488 L781.8 482.2 L781.1 476.4 L780.4 470.6 L779.5 464.8 L778.4 459.1 L777.3 453.4 L776 447.7 L774.7 442 L773.1 436.4 L771.5 430.7 L769.8 425.2 L767.9 419.6 L765.9 414.1 L763.8 408.7 L761.6 403.3 L759.3 397.9 L756.8 392.6 L754.3 387.3 L751.6 382.1 L748.8 377 L745.9 371.9 L742.9 366.8 L739.8 361.9 L736.6 357 L733.3 352.1 L729.9 347.4 L726.3 342.7 L722.7 338.1 L719 333.5 L715.2 329.1 L711.3 324.7 L707.2 320.4 L703.1 316.2 L699 312.1 L694.7 308 L690.3 304.1 L685.9 300.2 L681.3 296.5 L676.7 292.8 L672 289.2 L667.3 285.8 L662.4 282.4 L657.5 279.1 L652.5 276 L647.5 272.9 L642.3 270 L637.2 267.2 L631.9 264.4 L626.6 261.8 L621.3 259.3 L615.9 256.9 L610.4 254.7 L604.9 252.5 L599.3 250.5 L593.7 248.5 L588.1 246.7 L582.4 245.1 L576.7 243.5 L570.9 242.1 L565.1 240.7 L559.3 239.5 L553.4 238.5 L547.6 237.5 L541.7 236.7 L535.8 236 L529.8 235.4 L523.9 235 L518 234.7 L512 234.5 L506 234.4 L500.1 234.5 L494.1 234.7 L488.1 235 L482.2 235.4 L476.2 236 L470.3 236.7 L464.4 237.5 L458.5 238.5 L452.6 239.6 L446.7 240.8 L440.8 242.1 L435 243.6 L429.2 245.2 L423.5 246.9 L417.8 248.7 L412.1 250.6 L406.4 252.7 L400.8 254.9 L395.3 257.2 L389.8 259.7 L384.3 262.2 L378.9 264.9 L373.5 267.7 L368.2 270.6 L363 273.6 L357.8 276.7 L352.7 279.9 L347.7 283.3 L342.7 286.7 L337.8 290.3 L333 294 L328.3 297.8 L323.6 301.6 L319 305.6 L314.5 309.7 L310.1 313.9 L305.8 318.1 L301.5 322.5 L297.4 326.9 L293.3 331.5 L289.4 336.1 L285.5 340.9 L281.8 345.7 L278.1 350.5 L274.5 355.5 L271.1 360.6 L267.7 365.7 L264.5 370.9 L261.4 376.1 L258.4 381.5 L255.5 386.9 L252.7 392.3 L250 397.9 L247.4 403.5 L245 409.1 L242.7 414.8 L240.5 420.5 L238.4 426.3 L236.5 432.2 L234.6 438.1 L232.9 444 L231.3 450 L229.9 456 L228.6 462 L227.4 468.1 L226.3 474.2 L225.4 480.3 L224.6 486.5 L223.9 492.6 L223.3 498.8 L222.9 505 L222.7 511.2 L222.5 517.4 L222.5 523.7 L222.6 529.9 L222.9 536.1 L223.2 542.3 L223.8 548.6 L224.4 554.8 L225.2 561 L226.1 567.2 L227.2 573.3 L228.3 579.5 L229.7 585.6 L231.1 591.7 L232.7 597.8 L234.4 603.9 L236.2 609.9 L238.2 615.8 L240.3 621.8 L242.5 627.7 L244.8 633.5 L247.3 639.3 L249.9 645.1 L252.6 650.8 L255.5 656.5 L258.4 662 L261.5 667.6 L264.7 673.1 L268.1 678.5 L271.5 683.8 L275 689.1 L278.7 694.3 L282.5 699.4 L286.4 704.4 L290.4 709.4 L294.5 714.3 L298.7 719.1 L303 723.8 L307.4 728.4 L311.9 733 L316.6 737.4 L321.3 741.8 L326.1 746.1 L331 750.2 L336 754.3 L341 758.3 L346.2 762.1 L351.4 765.9 L356.8 769.6 L362.2 773.1 L367.6 776.6 L373.2 780 L378.8 783.2 L384.5 786.4 L390.2 789.5 L396 792.5 L401.9 795.4 L407.7 798.6 Z" fill="url(#scale)"/>

  <path d="M512 400 L415 456 L415 568 L512 624 L609 568 L609 456 Z" fill="url(#core)"/>
  <path d="M415 456 L415 568 L512 532.2 L489.6 456 Z" fill="#FFFFFF" opacity="0.34"/>
</svg>
